<?xml version="1.0" standalone="no"?>
<!DOCTYPE svg PUBLIC "-//W3C//DTD SVG 20010904//EN"
 "http://www.w3.org/TR/2001/REC-SVG-20010904/DTD/svg10.dtd">
<svg version="1.0" xmlns="http://www.w3.org/2000/svg"
 width="919.000000pt" height="695.000000pt" viewBox="0 0 919.000000 695.000000"
 preserveAspectRatio="xMidYMid meet">

<g transform="translate(0.000000,695.000000) scale(0.100000,-0.100000)"
fill="#000000" stroke="none">
<path d="M3070 6944 c-220 -27 -409 -116 -561 -264 -190 -186 -283 -405 -283
-670 -1 -267 100 -501 295 -684 122 -115 257 -188 429 -232 113 -29 326 -26
440 5 181 50 285 112 470 279 134 122 202 171 265 193 32 11 130 14 475 14
l435 0 53 -24 c63 -28 135 -83 264 -202 153 -141 256 -202 433 -255 79 -24
108 -27 235 -28 158 -1 234 12 363 65 281 114 490 362 564 670 25 108 23 297
-5 412 -99 402 -424 681 -844 722 -87 8 -242 -10 -343 -42 -164 -51 -259 -111
-448 -284 -124 -113 -183 -154 -251 -174 -73 -22 -849 -22 -922 0 -68 20 -127
61 -251 174 -58 53 -124 111 -147 129 -101 80 -251 150 -379 176 -78 16 -230
27 -287 20z m196 -185 c188 -26 287 -81 518 -291 121 -109 197 -160 283 -190
67 -23 72 -23 533 -23 l465 0 65 25 c87 34 162 85 276 189 53 47 125 110 161
138 226 183 547 211 813 72 150 -78 252 -184 330 -344 92 -187 104 -381 35
-578 -76 -220 -266 -402 -495 -475 -75 -23 -101 -27 -220 -27 -114 0 -147 4
-210 24 -140 44 -215 90 -365 226 -176 161 -249 210 -360 243 -66 20 -791 30
-923 12 -148 -19 -225 -63 -420 -239 -174 -157 -237 -197 -382 -242 -63 -20
-96 -24 -210 -24 -114 0 -147 4 -210 24 -266 83 -453 276 -526 542 -22 81 -25
280 -5 359 87 341 381 579 728 589 23 0 77 -4 119 -10z"/>
<path d="M982 4630 c-243 -34 -455 -137 -630 -304 -174 -167 -276 -351 -328
-593 -20 -92 -22 -296 -5 -396 51 -299 231 -576 481 -742 301 -201 653 -244
998 -124 162 57 276 132 462 304 183 170 268 226 371 245 69 13 980 13 1049 0
114 -22 196 -77 414 -280 123 -114 190 -163 303 -219 158 -78 309 -114 488
-114 138 -1 234 14 357 54 175 57 296 134 478 304 183 171 273 231 378 254 71
15 976 15 1057 0 109 -20 194 -78 410 -278 193 -180 351 -265 587 -317 104
-23 319 -23 428 0 276 59 511 206 675 424 419 558 231 1362 -390 1668 -330
162 -671 162 -1000 -1 -118 -58 -190 -112 -362 -269 -136 -125 -208 -179 -281
-208 l-57 -23 -530 0 c-391 0 -541 3 -570 12 -68 21 -160 83 -271 183 -209
189 -258 229 -332 271 -318 182 -677 205 -1013 64 -116 -49 -230 -128 -383
-269 -157 -144 -243 -209 -319 -239 -50 -21 -68 -22 -547 -25 -333 -2 -516 0
-559 8 -113 20 -199 75 -391 255 -177 165 -303 246 -462 299 -161 54 -362 76
-506 56z m366 -200 c89 -21 216 -78 296 -131 26 -18 107 -86 180 -152 213
-195 308 -259 439 -295 55 -15 121 -17 597 -17 532 0 535 0 610 23 130 41 244
121 450 316 94 90 154 133 255 184 258 130 562 133 820 8 111 -54 178 -104
320 -236 208 -194 316 -260 472 -287 124 -21 1063 -14 1140 9 133 40 235 110
433 294 63 58 141 124 173 146 554 378 1314 73 1449 -582 16 -77 19 -120 15
-225 -7 -191 -48 -323 -149 -477 -130 -199 -333 -343 -564 -400 -131 -32 -323
-30 -455 5 -173 45 -292 117 -479 291 -190 176 -296 247 -421 283 -58 16 -112
18 -604 18 -496 0 -545 -2 -599 -18 -135 -42 -221 -100 -416 -282 -69 -64
-155 -136 -192 -161 -190 -127 -419 -182 -638 -154 -120 15 -202 41 -310 95
-105 54 -157 92 -297 223 -191 179 -298 249 -433 283 -43 11 -168 14 -595 14
l-540 0 -78 -28 c-126 -44 -195 -93 -414 -294 -62 -57 -144 -124 -183 -149
-359 -232 -828 -193 -1142 95 -328 301 -399 790 -172 1174 66 110 211 255 321
321 93 55 245 110 343 125 92 14 270 5 368 -19z"/>
<path d="M3035 1873 c-144 -23 -310 -89 -418 -167 -76 -54 -189 -171 -242
-251 -49 -75 -99 -188 -126 -291 -33 -121 -31 -324 4 -457 73 -275 252 -490
509 -612 136 -64 244 -88 398 -88 154 0 262 24 399 89 111 52 158 87 314 227
134 121 193 162 261 182 73 22 849 22 922 0 68 -20 127 -61 251 -174 176 -160
239 -203 376 -259 112 -45 214 -65 347 -65 428 -3 796 281 907 700 35 133 37
336 4 457 -50 185 -120 306 -256 442 -250 251 -598 334 -940 227 -150 -47
-251 -109 -402 -249 -138 -126 -181 -160 -249 -191 l-59 -28 -435 0 c-345 0
-443 3 -475 14 -63 22 -131 71 -259 188 -183 167 -281 226 -461 278 -71 21
-117 27 -215 30 -69 2 -138 1 -155 -2z m340 -203 c140 -44 211 -89 379 -242
189 -172 275 -220 425 -238 42 -5 254 -8 471 -6 528 5 520 2 810 265 124 112
191 157 290 198 192 77 431 68 615 -24 288 -145 457 -455 417 -768 -67 -533
-626 -828 -1105 -584 -68 34 -125 79 -274 213 -115 105 -190 156 -276 187 -60
23 -73 23 -492 27 -288 2 -451 -1 -495 -8 -127 -22 -236 -91 -428 -272 -172
-162 -336 -231 -552 -231 -211 -1 -389 73 -537 220 -245 245 -292 624 -114
923 111 186 305 321 519 360 82 15 269 4 347 -20z"/>
</g>
</svg>
